<svg width="6" height="10" viewBox="0 0 6 10" fill="none" xmlns="http://www.w3.org/2000/svg">
<path d="M0.77698 9.50441L0.2959 9.02351C0.231652 8.95943 0.199636 8.88557 0.199636 8.80211C0.199636 8.71889 0.231652 8.64509 0.2959 8.58101L4.07778 4.8004L0.295996 1.01995C0.231754 0.955839 0.199732 0.882051 0.199732 0.798699C0.199732 0.715311 0.231754 0.641523 0.295996 0.577438L0.777112 0.0965772C0.841222 0.0323589 0.91504 0.000350952 0.998458 0.000350952C1.08182 0.000350952 1.15563 0.03246 1.21974 0.0965772L5.70416 4.57914C5.7683 4.64322 5.80035 4.71705 5.80035 4.8004C5.80035 4.88376 5.7683 4.95744 5.70416 5.02149L1.21974 9.50441C1.1556 9.56849 1.08178 9.60035 0.998458 9.60035C0.91504 9.60035 0.841222 9.56849 0.77698 9.50441Z" fill="#4C5CA7"/>
</svg>
