<svg width="14" height="6" viewBox="0 0 16 10" fill="none" xmlns="http://www.w3.org/2000/svg">
<path d="M15.8401 1.2964L15.0386 0.49491C14.9318 0.38788 14.8087 0.334534 14.6696 0.334534C14.5309 0.334534 14.4079 0.38788 14.3011 0.49491L8.00008 6.7956L1.69934 0.495079C1.59248 0.388049 1.4695 0.334702 1.33058 0.334702C1.1916 0.334702 1.06862 0.388049 0.961812 0.495079L0.160377 1.29663C0.0533466 1.40343 0 1.52641 0 1.66539C0 1.80426 0.0535151 1.92724 0.160377 2.03404L7.63132 9.50515C7.73812 9.61202 7.86116 9.66542 8.00008 9.66542C8.13901 9.66542 8.26182 9.61202 8.36857 9.50515L15.8401 2.03404C15.9469 1.92718 16 1.80421 16 1.66539C16 1.52641 15.9469 1.40343 15.8401 1.2964Z" fill="black"/>
</svg>
