<svg width="14" height="6" viewBox="0 0 16 10" fill="none" xmlns="http://www.w3.org/2000/svg">
<path d="M15.8401 8.37229L15.0386 9.17409C14.9318 9.28117 14.8087 9.33453 14.6696 9.33453C14.5309 9.33453 14.4079 9.28117 14.3011 9.17409L8.00008 2.87095L1.69934 9.17393C1.59248 9.281 1.4695 9.33437 1.33058 9.33437C1.1916 9.33437 1.06862 9.281 0.961812 9.17393L0.160377 8.37207C0.0533466 8.26522 0 8.14219 0 8.00316C0 7.86423 0.0535151 7.74121 0.160377 7.63436L7.63132 0.160328C7.73812 0.0534241 7.86116 2.35655e-07 8.00008 2.35655e-07C8.13901 2.35655e-07 8.26182 0.0534241 8.36857 0.160328L15.8401 7.63436C15.9469 7.74126 16 7.86429 16 8.00316C16 8.14219 15.9469 8.26522 15.8401 8.37229Z" fill="black"/>
</svg>
