<svg width="6" height="10" viewBox="0 0 6 10" fill="none" xmlns="http://www.w3.org/2000/svg">
<path d="M5.22299 0.0962812L5.70407 0.577181C5.76832 0.641261 5.80033 0.715122 5.80033 0.798582C5.80033 0.881802 5.76832 0.955602 5.70407 1.01968L1.92219 4.80029L5.70397 8.58074C5.76822 8.64485 5.80024 8.71864 5.80024 8.80199C5.80024 8.88538 5.76822 8.95917 5.70397 9.02325L5.22286 9.50412C5.15875 9.56833 5.08493 9.60034 5.00151 9.60034C4.91815 9.60034 4.84434 9.56823 4.78023 9.50412L0.295812 5.02155C0.23167 4.95747 0.199615 4.88365 0.199615 4.80029C0.199615 4.71694 0.23167 4.64325 0.295812 4.5792L4.78023 0.0962812C4.84437 0.0322012 4.91819 0.000341415 5.00151 0.000341415C5.08493 0.000341415 5.15875 0.0322012 5.22299 0.0962812Z" fill="#4C5CA7"/>
</svg>
