<svg width="16" height="16" viewBox="0 0 12 12" fill="none" xmlns="http://www.w3.org/2000/svg">
<path d="M6.70331 6.00352L11.8472 0.859611C12.0458 0.667872 12.0513 0.351507 11.8595 0.152974C11.6678 -0.0455587 11.3514 -0.0510637 11.1529 0.140676C11.1487 0.144687 11.1446 0.148787 11.1406 0.152974L5.99664 5.29688L0.852725 0.152945C0.654191 -0.0387945 0.337826 -0.0332895 0.146086 0.165244C-0.0409684 0.358916 -0.0409684 0.665939 0.146086 0.859611L5.29001 6.00352L0.146086 11.1474C-0.049021 11.3426 -0.049021 11.6589 0.146086 11.8541C0.341223 12.0491 0.657588 12.0491 0.852725 11.8541L5.99664 6.71016L11.1406 11.8541C11.3391 12.0458 11.6555 12.0403 11.8472 11.8418C12.0342 11.6481 12.0342 11.3411 11.8472 11.1474L6.70331 6.00352Z" fill="black"/>
</svg>
